<mxfile host="app.diagrams.net" modified="2023-03-27T11:33:12.768Z" agent="Mozilla/5.0 (Windows NT 10.0; Win64; x64) AppleWebKit/537.36 (KHTML, like Gecko) Chrome/110.0.0.0 Safari/537.36 OPR/96.0.0.0" etag="kuiws43AkqOS2_wtP2H5" version="21.1.1" type="device">
  <diagram name="Page-1" id="CfQ69mgIyZaqto8fOwk7">
    <mxGraphModel dx="1981" dy="736" grid="1" gridSize="10" guides="1" tooltips="1" connect="1" arrows="1" fold="1" page="1" pageScale="1" pageWidth="827" pageHeight="1169" background="#ffffff" math="0" shadow="0">
      <root>
        <mxCell id="0" />
        <mxCell id="1" parent="0" />
        <mxCell id="O3Cutgiu-xz6Rq6qo-6H-1" value="couleur" style="swimlane;fontStyle=0;childLayout=stackLayout;horizontal=1;startSize=30;horizontalStack=0;resizeParent=1;resizeParentMax=0;resizeLast=0;collapsible=1;marginBottom=0;whiteSpace=wrap;html=1;shadow=0;fillColor=#dae8fc;strokeColor=#6C8EBF;fillStyle=auto;swimlaneFillColor=none;gradientColor=none;gradientDirection=west;strokeWidth=2;perimeterSpacing=0;rounded=0;glass=0;" parent="1" vertex="1">
          <mxGeometry x="-60" y="30" width="140" height="120" as="geometry">
            <mxRectangle x="40" y="20" width="80" height="30" as="alternateBounds" />
          </mxGeometry>
        </mxCell>
        <mxCell id="O3Cutgiu-xz6Rq6qo-6H-3" value="&lt;b&gt;&lt;font style=&quot;font-size: 11px;&quot;&gt;id INT&lt;/font&gt;&lt;/b&gt;" style="text;strokeColor=none;fillColor=none;align=left;verticalAlign=middle;spacingLeft=4;spacingRight=4;overflow=hidden;points=[[0,0.5],[1,0.5]];portConstraint=eastwest;rotatable=0;whiteSpace=wrap;html=1;shadow=1;" parent="O3Cutgiu-xz6Rq6qo-6H-1" vertex="1">
          <mxGeometry y="30" width="140" height="30" as="geometry" />
        </mxCell>
        <mxCell id="O3Cutgiu-xz6Rq6qo-6H-7" value="Nom VARCHAR" style="text;strokeColor=none;fillColor=none;align=left;verticalAlign=middle;spacingLeft=4;spacingRight=4;overflow=hidden;points=[[0,0.5],[1,0.5]];portConstraint=eastwest;rotatable=0;whiteSpace=wrap;html=1;shadow=0;" parent="O3Cutgiu-xz6Rq6qo-6H-1" vertex="1">
          <mxGeometry y="60" width="140" height="30" as="geometry" />
        </mxCell>
        <mxCell id="O3Cutgiu-xz6Rq6qo-6H-4" value="Indexes" style="text;strokeColor=none;fillColor=#D6D6D6;align=left;verticalAlign=middle;spacingLeft=4;spacingRight=4;overflow=hidden;points=[[0,0.5],[1,0.5]];portConstraint=eastwest;rotatable=0;whiteSpace=wrap;html=1;shadow=0;rounded=1;" parent="O3Cutgiu-xz6Rq6qo-6H-1" vertex="1">
          <mxGeometry y="90" width="140" height="30" as="geometry" />
        </mxCell>
        <mxCell id="ft_depl9Q8cPhFsvZh_z-7" value="TYPE" style="swimlane;fontStyle=0;childLayout=stackLayout;horizontal=1;startSize=30;horizontalStack=0;resizeParent=1;resizeParentMax=0;resizeLast=0;collapsible=1;marginBottom=0;whiteSpace=wrap;html=1;shadow=0;fillColor=#dae8fc;strokeColor=#6C8EBF;fillStyle=auto;swimlaneFillColor=none;gradientColor=none;gradientDirection=west;strokeWidth=2;perimeterSpacing=0;rounded=0;glass=0;" vertex="1" parent="1">
          <mxGeometry x="-100" y="240" width="140" height="120" as="geometry">
            <mxRectangle x="40" y="20" width="80" height="30" as="alternateBounds" />
          </mxGeometry>
        </mxCell>
        <mxCell id="ft_depl9Q8cPhFsvZh_z-8" value="&lt;b&gt;&lt;font style=&quot;font-size: 11px;&quot;&gt;id INT&lt;/font&gt;&lt;/b&gt;" style="text;strokeColor=none;fillColor=none;align=left;verticalAlign=middle;spacingLeft=4;spacingRight=4;overflow=hidden;points=[[0,0.5],[1,0.5]];portConstraint=eastwest;rotatable=0;whiteSpace=wrap;html=1;shadow=1;" vertex="1" parent="ft_depl9Q8cPhFsvZh_z-7">
          <mxGeometry y="30" width="140" height="30" as="geometry" />
        </mxCell>
        <mxCell id="ft_depl9Q8cPhFsvZh_z-9" value="Nom VARCHAR(20)" style="text;strokeColor=none;fillColor=none;align=left;verticalAlign=middle;spacingLeft=4;spacingRight=4;overflow=hidden;points=[[0,0.5],[1,0.5]];portConstraint=eastwest;rotatable=0;whiteSpace=wrap;html=1;shadow=0;" vertex="1" parent="ft_depl9Q8cPhFsvZh_z-7">
          <mxGeometry y="60" width="140" height="30" as="geometry" />
        </mxCell>
        <mxCell id="ft_depl9Q8cPhFsvZh_z-10" value="Indexes" style="text;strokeColor=none;fillColor=#D6D6D6;align=left;verticalAlign=middle;spacingLeft=4;spacingRight=4;overflow=hidden;points=[[0,0.5],[1,0.5]];portConstraint=eastwest;rotatable=0;whiteSpace=wrap;html=1;shadow=0;rounded=1;" vertex="1" parent="ft_depl9Q8cPhFsvZh_z-7">
          <mxGeometry y="90" width="140" height="30" as="geometry" />
        </mxCell>
        <mxCell id="ft_depl9Q8cPhFsvZh_z-11" value="Bieres" style="swimlane;fontStyle=0;childLayout=stackLayout;horizontal=1;startSize=30;horizontalStack=0;resizeParent=1;resizeParentMax=0;resizeLast=0;collapsible=1;marginBottom=0;whiteSpace=wrap;html=1;shadow=0;fillColor=#dae8fc;strokeColor=#6C8EBF;fillStyle=auto;swimlaneFillColor=none;gradientColor=none;gradientDirection=west;strokeWidth=2;perimeterSpacing=0;rounded=0;glass=0;" vertex="1" parent="1">
          <mxGeometry x="410" y="180" width="140" height="240" as="geometry">
            <mxRectangle x="40" y="20" width="80" height="30" as="alternateBounds" />
          </mxGeometry>
        </mxCell>
        <mxCell id="ft_depl9Q8cPhFsvZh_z-12" value="&lt;b&gt;&lt;font style=&quot;font-size: 11px;&quot;&gt;id INT&lt;/font&gt;&lt;/b&gt;" style="text;strokeColor=none;fillColor=none;align=left;verticalAlign=middle;spacingLeft=4;spacingRight=4;overflow=hidden;points=[[0,0.5],[1,0.5]];portConstraint=eastwest;rotatable=0;whiteSpace=wrap;html=1;shadow=1;" vertex="1" parent="ft_depl9Q8cPhFsvZh_z-11">
          <mxGeometry y="30" width="140" height="30" as="geometry" />
        </mxCell>
        <mxCell id="ft_depl9Q8cPhFsvZh_z-13" value="couleur VARCHAR (10)" style="text;strokeColor=none;fillColor=none;align=left;verticalAlign=middle;spacingLeft=4;spacingRight=4;overflow=hidden;points=[[0,0.5],[1,0.5]];portConstraint=eastwest;rotatable=0;whiteSpace=wrap;html=1;shadow=0;" vertex="1" parent="ft_depl9Q8cPhFsvZh_z-11">
          <mxGeometry y="60" width="140" height="30" as="geometry" />
        </mxCell>
        <mxCell id="ft_depl9Q8cPhFsvZh_z-18" value="type VARCHAR (20)" style="text;strokeColor=none;fillColor=none;align=left;verticalAlign=middle;spacingLeft=4;spacingRight=4;overflow=hidden;points=[[0,0.5],[1,0.5]];portConstraint=eastwest;rotatable=0;whiteSpace=wrap;html=1;shadow=0;" vertex="1" parent="ft_depl9Q8cPhFsvZh_z-11">
          <mxGeometry y="90" width="140" height="30" as="geometry" />
        </mxCell>
        <mxCell id="ft_depl9Q8cPhFsvZh_z-19" value="marque VARCHAR(25)" style="text;strokeColor=none;fillColor=none;align=left;verticalAlign=middle;spacingLeft=4;spacingRight=4;overflow=hidden;points=[[0,0.5],[1,0.5]];portConstraint=eastwest;rotatable=0;whiteSpace=wrap;html=1;shadow=0;" vertex="1" parent="ft_depl9Q8cPhFsvZh_z-11">
          <mxGeometry y="120" width="140" height="30" as="geometry" />
        </mxCell>
        <mxCell id="ft_depl9Q8cPhFsvZh_z-20" value="couleur _id INT" style="text;strokeColor=none;fillColor=none;align=left;verticalAlign=middle;spacingLeft=4;spacingRight=4;overflow=hidden;points=[[0,0.5],[1,0.5]];portConstraint=eastwest;rotatable=0;whiteSpace=wrap;html=1;shadow=0;" vertex="1" parent="ft_depl9Q8cPhFsvZh_z-11">
          <mxGeometry y="150" width="140" height="30" as="geometry" />
        </mxCell>
        <mxCell id="ft_depl9Q8cPhFsvZh_z-21" value="Type_id INT" style="text;strokeColor=none;fillColor=none;align=left;verticalAlign=middle;spacingLeft=4;spacingRight=4;overflow=hidden;points=[[0,0.5],[1,0.5]];portConstraint=eastwest;rotatable=0;whiteSpace=wrap;html=1;shadow=0;" vertex="1" parent="ft_depl9Q8cPhFsvZh_z-11">
          <mxGeometry y="180" width="140" height="30" as="geometry" />
        </mxCell>
        <mxCell id="ft_depl9Q8cPhFsvZh_z-22" value="Indexes" style="text;strokeColor=none;fillColor=none;align=left;verticalAlign=middle;spacingLeft=4;spacingRight=4;overflow=hidden;points=[[0,0.5],[1,0.5]];portConstraint=eastwest;rotatable=0;whiteSpace=wrap;html=1;shadow=0;" vertex="1" parent="ft_depl9Q8cPhFsvZh_z-11">
          <mxGeometry y="210" width="140" height="30" as="geometry" />
        </mxCell>
        <mxCell id="ft_depl9Q8cPhFsvZh_z-23" value="Ticket" style="swimlane;fontStyle=0;childLayout=stackLayout;horizontal=1;startSize=30;horizontalStack=0;resizeParent=1;resizeParentMax=0;resizeLast=0;collapsible=1;marginBottom=0;whiteSpace=wrap;html=1;shadow=0;fillColor=#dae8fc;strokeColor=#6C8EBF;fillStyle=auto;swimlaneFillColor=none;gradientColor=none;gradientDirection=west;strokeWidth=2;perimeterSpacing=0;rounded=0;glass=0;" vertex="1" parent="1">
          <mxGeometry x="840" y="170" width="140" height="240" as="geometry">
            <mxRectangle x="40" y="20" width="80" height="30" as="alternateBounds" />
          </mxGeometry>
        </mxCell>
        <mxCell id="ft_depl9Q8cPhFsvZh_z-24" value="&lt;b&gt;&lt;font style=&quot;font-size: 11px;&quot;&gt;id INT&lt;/font&gt;&lt;/b&gt;" style="text;strokeColor=none;fillColor=none;align=left;verticalAlign=middle;spacingLeft=4;spacingRight=4;overflow=hidden;points=[[0,0.5],[1,0.5]];portConstraint=eastwest;rotatable=0;whiteSpace=wrap;html=1;shadow=1;" vertex="1" parent="ft_depl9Q8cPhFsvZh_z-23">
          <mxGeometry y="30" width="140" height="30" as="geometry" />
        </mxCell>
        <mxCell id="ft_depl9Q8cPhFsvZh_z-25" value="numero DECIMAL" style="text;strokeColor=none;fillColor=none;align=left;verticalAlign=middle;spacingLeft=4;spacingRight=4;overflow=hidden;points=[[0,0.5],[1,0.5]];portConstraint=eastwest;rotatable=0;whiteSpace=wrap;html=1;shadow=0;" vertex="1" parent="ft_depl9Q8cPhFsvZh_z-23">
          <mxGeometry y="60" width="140" height="30" as="geometry" />
        </mxCell>
        <mxCell id="ft_depl9Q8cPhFsvZh_z-26" value="Horaire DATE" style="text;strokeColor=none;fillColor=none;align=left;verticalAlign=middle;spacingLeft=4;spacingRight=4;overflow=hidden;points=[[0,0.5],[1,0.5]];portConstraint=eastwest;rotatable=0;whiteSpace=wrap;html=1;shadow=0;" vertex="1" parent="ft_depl9Q8cPhFsvZh_z-23">
          <mxGeometry y="90" width="140" height="30" as="geometry" />
        </mxCell>
        <mxCell id="ft_depl9Q8cPhFsvZh_z-27" value="Prix TTC DECIMAL" style="text;strokeColor=none;fillColor=none;align=left;verticalAlign=middle;spacingLeft=4;spacingRight=4;overflow=hidden;points=[[0,0.5],[1,0.5]];portConstraint=eastwest;rotatable=0;whiteSpace=wrap;html=1;shadow=0;" vertex="1" parent="ft_depl9Q8cPhFsvZh_z-23">
          <mxGeometry y="120" width="140" height="30" as="geometry" />
        </mxCell>
        <mxCell id="ft_depl9Q8cPhFsvZh_z-28" value="produit vendue&amp;nbsp;" style="text;strokeColor=none;fillColor=none;align=left;verticalAlign=middle;spacingLeft=4;spacingRight=4;overflow=hidden;points=[[0,0.5],[1,0.5]];portConstraint=eastwest;rotatable=0;whiteSpace=wrap;html=1;shadow=0;" vertex="1" parent="ft_depl9Q8cPhFsvZh_z-23">
          <mxGeometry y="150" width="140" height="30" as="geometry" />
        </mxCell>
        <mxCell id="ft_depl9Q8cPhFsvZh_z-29" value="Quantité vendu" style="text;strokeColor=none;fillColor=none;align=left;verticalAlign=middle;spacingLeft=4;spacingRight=4;overflow=hidden;points=[[0,0.5],[1,0.5]];portConstraint=eastwest;rotatable=0;whiteSpace=wrap;html=1;shadow=0;" vertex="1" parent="ft_depl9Q8cPhFsvZh_z-23">
          <mxGeometry y="180" width="140" height="30" as="geometry" />
        </mxCell>
        <mxCell id="ft_depl9Q8cPhFsvZh_z-30" value="Indexes" style="text;strokeColor=none;fillColor=none;align=left;verticalAlign=middle;spacingLeft=4;spacingRight=4;overflow=hidden;points=[[0,0.5],[1,0.5]];portConstraint=eastwest;rotatable=0;whiteSpace=wrap;html=1;shadow=0;" vertex="1" parent="ft_depl9Q8cPhFsvZh_z-23">
          <mxGeometry y="210" width="140" height="30" as="geometry" />
        </mxCell>
        <mxCell id="ft_depl9Q8cPhFsvZh_z-31" value="Marque" style="swimlane;fontStyle=0;childLayout=stackLayout;horizontal=1;startSize=30;horizontalStack=0;resizeParent=1;resizeParentMax=0;resizeLast=0;collapsible=1;marginBottom=0;whiteSpace=wrap;html=1;shadow=0;fillColor=#dae8fc;strokeColor=#6C8EBF;fillStyle=auto;swimlaneFillColor=none;gradientColor=none;gradientDirection=west;strokeWidth=2;perimeterSpacing=0;rounded=0;glass=0;" vertex="1" parent="1">
          <mxGeometry x="380" y="570" width="140" height="180" as="geometry">
            <mxRectangle x="40" y="20" width="80" height="30" as="alternateBounds" />
          </mxGeometry>
        </mxCell>
        <mxCell id="ft_depl9Q8cPhFsvZh_z-32" value="&lt;b&gt;&lt;font style=&quot;font-size: 11px;&quot;&gt;id INT&lt;/font&gt;&lt;/b&gt;" style="text;strokeColor=none;fillColor=none;align=left;verticalAlign=middle;spacingLeft=4;spacingRight=4;overflow=hidden;points=[[0,0.5],[1,0.5]];portConstraint=eastwest;rotatable=0;whiteSpace=wrap;html=1;shadow=1;" vertex="1" parent="ft_depl9Q8cPhFsvZh_z-31">
          <mxGeometry y="30" width="140" height="30" as="geometry" />
        </mxCell>
        <mxCell id="ft_depl9Q8cPhFsvZh_z-33" value="Pays VARCHAR(45)" style="text;strokeColor=none;fillColor=none;align=left;verticalAlign=middle;spacingLeft=4;spacingRight=4;overflow=hidden;points=[[0,0.5],[1,0.5]];portConstraint=eastwest;rotatable=0;whiteSpace=wrap;html=1;shadow=0;" vertex="1" parent="ft_depl9Q8cPhFsvZh_z-31">
          <mxGeometry y="60" width="140" height="30" as="geometry" />
        </mxCell>
        <mxCell id="ft_depl9Q8cPhFsvZh_z-34" value="Fabriquant VARCHAR(45)" style="text;strokeColor=none;fillColor=none;align=left;verticalAlign=middle;spacingLeft=4;spacingRight=4;overflow=hidden;points=[[0,0.5],[1,0.5]];portConstraint=eastwest;rotatable=0;whiteSpace=wrap;html=1;shadow=0;" vertex="1" parent="ft_depl9Q8cPhFsvZh_z-31">
          <mxGeometry y="90" width="140" height="30" as="geometry" />
        </mxCell>
        <mxCell id="ft_depl9Q8cPhFsvZh_z-35" value="Bieres_id INT" style="text;strokeColor=none;fillColor=none;align=left;verticalAlign=middle;spacingLeft=4;spacingRight=4;overflow=hidden;points=[[0,0.5],[1,0.5]];portConstraint=eastwest;rotatable=0;whiteSpace=wrap;html=1;shadow=0;" vertex="1" parent="ft_depl9Q8cPhFsvZh_z-31">
          <mxGeometry y="120" width="140" height="30" as="geometry" />
        </mxCell>
        <mxCell id="ft_depl9Q8cPhFsvZh_z-36" value="Indexes" style="text;strokeColor=none;fillColor=none;align=left;verticalAlign=middle;spacingLeft=4;spacingRight=4;overflow=hidden;points=[[0,0.5],[1,0.5]];portConstraint=eastwest;rotatable=0;whiteSpace=wrap;html=1;shadow=0;" vertex="1" parent="ft_depl9Q8cPhFsvZh_z-31">
          <mxGeometry y="150" width="140" height="30" as="geometry" />
        </mxCell>
        <mxCell id="ft_depl9Q8cPhFsvZh_z-39" value="Pays" style="swimlane;fontStyle=0;childLayout=stackLayout;horizontal=1;startSize=30;horizontalStack=0;resizeParent=1;resizeParentMax=0;resizeLast=0;collapsible=1;marginBottom=0;whiteSpace=wrap;html=1;shadow=0;fillColor=#dae8fc;strokeColor=#6C8EBF;fillStyle=auto;swimlaneFillColor=none;gradientColor=none;gradientDirection=west;strokeWidth=2;perimeterSpacing=0;rounded=0;glass=0;" vertex="1" parent="1">
          <mxGeometry x="840" y="570" width="140" height="150" as="geometry">
            <mxRectangle x="40" y="20" width="80" height="30" as="alternateBounds" />
          </mxGeometry>
        </mxCell>
        <mxCell id="ft_depl9Q8cPhFsvZh_z-40" value="&lt;b&gt;&lt;font style=&quot;font-size: 11px;&quot;&gt;id INT&lt;/font&gt;&lt;/b&gt;" style="text;strokeColor=none;fillColor=none;align=left;verticalAlign=middle;spacingLeft=4;spacingRight=4;overflow=hidden;points=[[0,0.5],[1,0.5]];portConstraint=eastwest;rotatable=0;whiteSpace=wrap;html=1;shadow=1;" vertex="1" parent="ft_depl9Q8cPhFsvZh_z-39">
          <mxGeometry y="30" width="140" height="30" as="geometry" />
        </mxCell>
        <mxCell id="ft_depl9Q8cPhFsvZh_z-41" value="Continent VARCHAR" style="text;strokeColor=none;fillColor=none;align=left;verticalAlign=middle;spacingLeft=4;spacingRight=4;overflow=hidden;points=[[0,0.5],[1,0.5]];portConstraint=eastwest;rotatable=0;whiteSpace=wrap;html=1;shadow=0;" vertex="1" parent="ft_depl9Q8cPhFsvZh_z-39">
          <mxGeometry y="60" width="140" height="30" as="geometry" />
        </mxCell>
        <mxCell id="ft_depl9Q8cPhFsvZh_z-42" value="Marque_id INT" style="text;strokeColor=none;fillColor=none;align=left;verticalAlign=middle;spacingLeft=4;spacingRight=4;overflow=hidden;points=[[0,0.5],[1,0.5]];portConstraint=eastwest;rotatable=0;whiteSpace=wrap;html=1;shadow=0;" vertex="1" parent="ft_depl9Q8cPhFsvZh_z-39">
          <mxGeometry y="90" width="140" height="30" as="geometry" />
        </mxCell>
        <mxCell id="ft_depl9Q8cPhFsvZh_z-43" value="Indexes" style="text;strokeColor=none;fillColor=none;align=left;verticalAlign=middle;spacingLeft=4;spacingRight=4;overflow=hidden;points=[[0,0.5],[1,0.5]];portConstraint=eastwest;rotatable=0;whiteSpace=wrap;html=1;shadow=0;" vertex="1" parent="ft_depl9Q8cPhFsvZh_z-39">
          <mxGeometry y="120" width="140" height="30" as="geometry" />
        </mxCell>
        <mxCell id="ft_depl9Q8cPhFsvZh_z-47" value="couleur" style="swimlane;fontStyle=0;childLayout=stackLayout;horizontal=1;startSize=30;horizontalStack=0;resizeParent=1;resizeParentMax=0;resizeLast=0;collapsible=1;marginBottom=0;whiteSpace=wrap;html=1;shadow=0;fillColor=#d5e8d4;strokeColor=#A1A1A1;fillStyle=auto;swimlaneFillColor=none;gradientDirection=west;strokeWidth=3;perimeterSpacing=0;rounded=1;glass=0;" vertex="1" parent="1">
          <mxGeometry x="180" y="150" width="140" height="60" as="geometry">
            <mxRectangle x="40" y="20" width="80" height="30" as="alternateBounds" />
          </mxGeometry>
        </mxCell>
        <mxCell id="ft_depl9Q8cPhFsvZh_z-48" value="&lt;span style=&quot;font-size: 11px;&quot;&gt;&lt;b&gt;0 routines&lt;/b&gt;&lt;/span&gt;" style="text;strokeColor=#c8e8b5;fillColor=#d5e8d4;align=left;verticalAlign=middle;spacingLeft=4;spacingRight=4;overflow=hidden;points=[[0,0.5],[1,0.5]];portConstraint=eastwest;rotatable=0;whiteSpace=wrap;html=1;shadow=1;fillStyle=auto;rounded=1;strokeWidth=0;glass=0;" vertex="1" parent="ft_depl9Q8cPhFsvZh_z-47">
          <mxGeometry y="30" width="140" height="30" as="geometry" />
        </mxCell>
        <mxCell id="ft_depl9Q8cPhFsvZh_z-61" value="" style="edgeStyle=orthogonalEdgeStyle;rounded=0;sketch=1;hachureGap=4;jiggle=2;curveFitting=1;orthogonalLoop=1;jettySize=auto;html=1;strokeColor=#EEEEEE;fontFamily=Helvetica;fontSource=https%3A%2F%2Ffonts.googleapis.com%2Fcss%3Ffamily%3DArchitects%2BDaughter;fontSize=12;fontColor=default;startSize=30;" edge="1" parent="1" source="ft_depl9Q8cPhFsvZh_z-56">
          <mxGeometry relative="1" as="geometry">
            <mxPoint x="110" y="500" as="targetPoint" />
          </mxGeometry>
        </mxCell>
        <mxCell id="ft_depl9Q8cPhFsvZh_z-56" value="&lt;span style=&quot;font-size: 11px;&quot;&gt;&lt;b&gt;&amp;nbsp; &amp;nbsp; &amp;nbsp; &amp;nbsp; &amp;nbsp; &amp;nbsp;Categorie&lt;br&gt;&lt;/b&gt;&lt;/span&gt;" style="text;strokeColor=#c8e8b5;fillColor=#d5e8d4;align=left;verticalAlign=middle;spacingLeft=4;spacingRight=4;overflow=hidden;points=[[0,0.5],[1,0.5]];portConstraint=eastwest;rotatable=0;whiteSpace=wrap;html=1;shadow=1;fillStyle=auto;rounded=1;strokeWidth=0;glass=0;" vertex="1" parent="1">
          <mxGeometry x="150" y="270" width="140" height="30" as="geometry" />
        </mxCell>
        <mxCell id="ft_depl9Q8cPhFsvZh_z-63" value="&lt;span style=&quot;font-size: 11px;&quot;&gt;&lt;b&gt;0 routines&lt;br&gt;&lt;/b&gt;&lt;/span&gt;" style="text;strokeColor=#c8e8b5;fillColor=#d5e8d4;align=left;verticalAlign=middle;spacingLeft=4;spacingRight=4;overflow=hidden;points=[[0,0.5],[1,0.5]];portConstraint=eastwest;rotatable=0;whiteSpace=wrap;html=1;shadow=1;fillStyle=auto;rounded=1;strokeWidth=0;glass=0;" vertex="1" parent="1">
          <mxGeometry x="150" y="300" width="140" height="30" as="geometry" />
        </mxCell>
        <mxCell id="ft_depl9Q8cPhFsvZh_z-64" value="&lt;span style=&quot;font-size: 11px;&quot;&gt;&lt;b&gt;&amp;nbsp; &amp;nbsp; &amp;nbsp; &amp;nbsp; &amp;nbsp; &amp;nbsp;Produits&lt;br&gt;&lt;/b&gt;&lt;/span&gt;" style="text;strokeColor=#c8e8b5;fillColor=#d5e8d4;align=left;verticalAlign=middle;spacingLeft=4;spacingRight=4;overflow=hidden;points=[[0,0.5],[1,0.5]];portConstraint=eastwest;rotatable=0;whiteSpace=wrap;html=1;shadow=1;fillStyle=auto;rounded=1;strokeWidth=0;glass=0;" vertex="1" parent="1">
          <mxGeometry x="400" y="470" width="140" height="30" as="geometry" />
        </mxCell>
        <mxCell id="ft_depl9Q8cPhFsvZh_z-65" value="&lt;span style=&quot;font-size: 11px;&quot;&gt;&lt;b&gt;0 Routines&lt;br&gt;&lt;/b&gt;&lt;/span&gt;" style="text;strokeColor=#c8e8b5;fillColor=#d5e8d4;align=left;verticalAlign=middle;spacingLeft=4;spacingRight=4;overflow=hidden;points=[[0,0.5],[1,0.5]];portConstraint=eastwest;rotatable=0;whiteSpace=wrap;html=1;shadow=1;fillStyle=auto;rounded=1;strokeWidth=0;glass=0;" vertex="1" parent="1">
          <mxGeometry x="400" y="490" width="140" height="30" as="geometry" />
        </mxCell>
        <mxCell id="ft_depl9Q8cPhFsvZh_z-66" value="&lt;span style=&quot;font-size: 11px;&quot;&gt;&lt;b&gt;&amp;nbsp; &amp;nbsp; &amp;nbsp; &amp;nbsp; &amp;nbsp; &amp;nbsp; Donne&lt;br&gt;&lt;/b&gt;&lt;/span&gt;" style="text;strokeColor=#c8e8b5;fillColor=#d5e8d4;align=left;verticalAlign=middle;spacingLeft=4;spacingRight=4;overflow=hidden;points=[[0,0.5],[1,0.5]];portConstraint=eastwest;rotatable=0;whiteSpace=wrap;html=1;shadow=1;fillStyle=auto;rounded=1;strokeWidth=0;glass=0;" vertex="1" parent="1">
          <mxGeometry x="630" y="290" width="140" height="30" as="geometry" />
        </mxCell>
        <mxCell id="ft_depl9Q8cPhFsvZh_z-67" value="&lt;span style=&quot;font-size: 11px;&quot;&gt;&lt;b&gt;&amp;nbsp; &amp;nbsp; &amp;nbsp; &amp;nbsp; &amp;nbsp; provient&amp;nbsp;&lt;br&gt;&lt;/b&gt;&lt;/span&gt;" style="text;strokeColor=#c8e8b5;fillColor=#d5e8d4;align=left;verticalAlign=middle;spacingLeft=4;spacingRight=4;overflow=hidden;points=[[0,0.5],[1,0.5]];portConstraint=eastwest;rotatable=0;whiteSpace=wrap;html=1;shadow=1;fillStyle=auto;rounded=1;strokeWidth=0;glass=0;" vertex="1" parent="1">
          <mxGeometry x="620" y="630" width="140" height="30" as="geometry" />
        </mxCell>
        <mxCell id="ft_depl9Q8cPhFsvZh_z-68" value="&lt;span style=&quot;font-size: 11px;&quot;&gt;&lt;b&gt;&amp;nbsp; &amp;nbsp;0 Routines&lt;br&gt;&lt;/b&gt;&lt;/span&gt;" style="text;strokeColor=#c8e8b5;fillColor=#d5e8d4;align=left;verticalAlign=middle;spacingLeft=4;spacingRight=4;overflow=hidden;points=[[0,0.5],[1,0.5]];portConstraint=eastwest;rotatable=0;whiteSpace=wrap;html=1;shadow=1;fillStyle=auto;rounded=1;strokeWidth=0;glass=0;" vertex="1" parent="1">
          <mxGeometry x="630" y="320" width="140" height="30" as="geometry" />
        </mxCell>
        <mxCell id="ft_depl9Q8cPhFsvZh_z-69" value="&lt;span style=&quot;font-size: 11px;&quot;&gt;&lt;b&gt;0 Routines&lt;br&gt;&lt;/b&gt;&lt;/span&gt;" style="text;strokeColor=#c8e8b5;fillColor=#d5e8d4;align=left;verticalAlign=middle;spacingLeft=4;spacingRight=4;overflow=hidden;points=[[0,0.5],[1,0.5]];portConstraint=eastwest;rotatable=0;whiteSpace=wrap;html=1;shadow=1;fillStyle=auto;rounded=1;strokeWidth=0;glass=0;" vertex="1" parent="1">
          <mxGeometry x="620" y="660" width="140" height="30" as="geometry" />
        </mxCell>
      </root>
    </mxGraphModel>
  </diagram>
</mxfile>
